<svg width="302" height="302" viewBox="0 0 302 302" fill="none" xmlns="http://www.w3.org/2000/svg">
<circle cx="151" cy="151" r="150" stroke="#0D0D0D" stroke-width="2"/>
<path d="M243.597 172.383L244.075 168.126L249.706 166.693L250.875 156.282L245.702 153.637L246.184 149.344L270.174 161.527L269.692 165.82L243.597 172.383ZM264.241 163.071L254.475 158.099L253.619 165.719L264.241 163.071Z" fill="black"/>
<path d="M250.646 191.711C249.713 192.354 248.677 192.745 247.536 192.884C246.388 193.047 245.259 192.936 244.147 192.552C242.877 192.113 241.814 191.404 240.96 190.423C240.105 189.442 239.541 188.321 239.266 187.058C238.992 185.795 239.066 184.551 239.49 183.326L241.818 176.589L241.784 176.578L243.09 172.801L266.909 181.027L263.452 191.03C263.052 192.187 262.388 193.151 261.461 193.923C260.534 194.694 259.462 195.187 258.246 195.402C257.044 195.647 255.864 195.57 254.707 195.17C253.845 194.873 253.065 194.413 252.365 193.79C251.659 193.191 251.086 192.498 250.646 191.711ZM261.997 183.558L255.736 181.396L253.618 187.634C253.351 188.405 253.422 189.191 253.831 189.993C254.262 190.802 254.909 191.355 255.771 191.653C256.633 191.95 257.461 191.906 258.254 191.52C259.04 191.157 259.57 190.578 259.845 189.784L261.997 183.558ZM243.097 184.572C242.791 185.457 242.872 186.323 243.341 187.17C243.802 188.04 244.498 188.636 245.428 188.957C246.358 189.278 247.273 189.239 248.173 188.839C249.065 188.461 249.664 187.83 249.97 186.946L252.299 180.209L245.425 177.835L243.097 184.572Z" fill="black"/>
<path d="M229.559 202.185C230.844 200.215 232.513 198.71 234.566 197.67C236.64 196.643 238.832 196.181 241.144 196.284C243.442 196.406 245.576 197.109 247.547 198.393C249.518 199.677 251.023 201.345 252.063 203.398C253.089 205.47 253.541 207.655 253.418 209.952C253.315 212.263 252.622 214.403 251.337 216.373C250.052 218.343 248.373 219.842 246.299 220.868C244.246 221.908 242.07 222.366 239.772 222.244C237.46 222.142 235.319 221.449 233.349 220.165C231.378 218.881 229.879 217.203 228.853 215.13C227.813 213.078 227.345 210.896 227.447 208.586C227.57 206.288 228.274 204.155 229.559 202.185ZM232.907 204.366C232.016 205.733 231.528 207.206 231.444 208.784C231.368 210.395 231.686 211.906 232.4 213.316C233.12 214.759 234.164 215.927 235.532 216.817C236.899 217.708 238.379 218.185 239.971 218.249C241.57 218.345 243.081 218.027 244.505 217.293C245.936 216.593 247.097 215.559 247.989 214.192C248.88 212.825 249.364 211.336 249.441 209.724C249.525 208.146 249.206 206.635 248.486 205.192C247.772 203.782 246.732 202.631 245.364 201.74C243.997 200.849 242.514 200.356 240.915 200.259C239.323 200.196 237.811 200.515 236.38 201.215C234.956 201.949 233.799 202.999 232.907 204.366Z" fill="black"/>
<path d="M227.826 242.832L224.879 245.531L213.615 233.246C212.431 231.954 211.678 230.529 211.355 228.969C211.032 227.41 211.151 225.853 211.712 224.298C212.271 222.777 213.223 221.4 214.568 220.168C215.913 218.936 217.368 218.108 218.933 217.684C220.514 217.277 222.067 217.303 223.593 217.76C225.102 218.233 226.448 219.116 227.632 220.407L238.896 232.693L235.949 235.392L224.685 223.106C223.664 221.992 222.473 221.439 221.113 221.447C219.736 221.472 218.454 222.027 217.269 223.114C216.012 224.264 215.321 225.5 215.195 226.819C215.068 228.172 215.524 229.414 216.562 230.547L227.826 242.832Z" fill="black"/>
<path d="M204.139 257.447L202.203 254.2L208.39 250.517L197.423 232.117L200.857 230.073L211.823 248.472L217.979 244.807L219.914 248.054L204.139 257.447Z" fill="black"/>
<path d="M169.45 269.235L169.465 269.306L165.561 270.158L160.177 245.54L164.081 244.687L167.919 262.237L172.57 248.286L173.555 248.071L183.62 258.88L179.76 241.225L183.663 240.372L189.055 265.026L185.151 265.879L185.136 265.808L185.01 265.909L174.47 254.615L169.606 269.275L169.45 269.235Z" fill="black"/>
<path d="M151.79 255.748L151.927 248.657L141.021 248.446L141.094 244.667L155.996 244.955L155.509 270.15L140.788 269.866L140.861 266.087L151.587 266.294L151.717 259.527L141.891 259.337L141.964 255.558L151.79 255.748Z" fill="black"/>
<path d="M91.3075 223.999L94.9308 226.285L93.7641 231.976L102.624 237.565L107.262 234.063L110.916 236.368L89.4843 252.644L85.8305 250.339L91.3075 223.999ZM90.683 246.632L99.4188 240.012L92.9334 235.921L90.683 246.632Z" fill="black"/>
<path d="M71.2337 222.166C71.0639 221.046 71.1658 219.943 71.5392 218.857C71.8957 217.754 72.4898 216.787 73.3216 215.956C74.2722 215.006 75.3755 214.361 76.6317 214.022C77.8878 213.682 79.1439 213.665 80.4 213.971C81.6562 214.276 82.7426 214.887 83.6592 215.803L88.7007 220.842L88.7262 220.817L91.5525 223.642L73.729 241.456L66.2431 233.974C65.3774 233.109 64.8003 232.091 64.5117 230.92C64.2231 229.75 64.2486 228.57 64.5881 227.383C64.8936 226.195 65.4792 225.169 66.345 224.303C66.99 223.659 67.7454 223.158 68.6111 222.802C69.4598 222.429 70.334 222.217 71.2337 222.166ZM73.6017 235.934L78.2867 231.251L73.6017 226.619C73.0245 226.042 72.2861 225.763 71.3865 225.779C70.4698 225.813 69.689 226.153 69.0439 226.797C68.3989 227.442 68.0764 228.206 68.0764 229.088C68.0594 229.953 68.348 230.683 68.9421 231.277L73.6017 235.934ZM80.9602 218.501C80.2982 217.839 79.4834 217.534 78.5159 217.585C77.5313 217.619 76.6911 217.983 75.9951 218.679C75.2991 219.375 74.9342 220.214 74.9002 221.199C74.8493 222.166 75.1549 222.98 75.8169 223.642L80.8584 228.681L86.0017 223.54L80.9602 218.501Z" fill="black"/>
<path d="M70.8289 198.855C72.0405 200.87 72.6655 203.029 72.704 205.329C72.7219 207.642 72.1799 209.815 71.0778 211.848C69.9635 213.861 68.3981 215.473 66.3816 216.683C64.3651 217.894 62.2063 218.518 59.9051 218.556C57.5914 218.574 55.4277 218.025 53.414 216.911C51.3796 215.809 49.7566 214.25 48.545 212.234C47.3334 210.218 46.7187 208.054 46.7008 205.741C46.6623 203.441 47.2002 201.284 48.3146 199.271C49.4166 197.238 50.9759 195.616 52.9923 194.405C55.0088 193.195 57.1738 192.581 59.4874 192.563C61.7886 192.525 63.9564 193.057 65.9908 194.159C68.0046 195.273 69.6173 196.839 70.8289 198.855ZM67.403 200.911C66.5623 199.513 65.4501 198.431 64.0664 197.666C62.6497 196.893 61.151 196.519 59.5702 196.544C57.9564 196.562 56.4499 196.99 55.0508 197.83C53.6516 198.67 52.5758 199.792 51.8233 201.196C51.0379 202.591 50.6642 204.089 50.7022 205.69C50.7073 207.283 51.1302 208.778 51.9709 210.177C52.8116 211.576 53.9403 212.662 55.3569 213.435C56.7407 214.2 58.2394 214.574 59.8531 214.556C61.434 214.531 62.924 214.098 64.3231 213.258C65.7223 212.418 66.8146 211.301 67.6 209.905C68.3525 208.502 68.7262 207.003 68.7211 205.411C68.683 203.81 68.2437 202.31 67.403 200.911Z" fill="black"/>
<path d="M35.3316 180.177L34.184 176.349L50.1512 171.567C51.8295 171.064 53.4411 171.007 54.9859 171.396C56.5307 171.785 57.8812 172.571 59.0374 173.753C60.1636 174.919 60.9887 176.375 61.5125 178.122C62.0363 179.869 62.1487 181.539 61.8495 183.132C61.5273 184.732 60.8282 186.119 59.7521 187.293C58.669 188.444 57.2883 189.271 55.61 189.774L39.6429 194.556L38.4953 190.729L54.4624 185.946C55.9108 185.512 56.9271 184.682 57.5113 183.455C58.0886 182.204 58.1463 180.809 57.6845 179.269C57.1952 177.637 56.3839 176.477 55.2506 175.789C54.0875 175.085 52.7702 174.953 51.2988 175.394L35.3316 180.177Z" fill="black"/>
<path d="M32.2259 151.181L35.9935 150.875L36.5764 158.052L57.9262 156.319L58.2497 160.302L36.8998 162.035L37.4798 169.175L33.7121 169.481L32.2259 151.181Z" fill="black"/>
<path d="M38.0075 114.513L37.9376 114.496L38.8951 110.617L63.3624 116.649L62.4049 120.529L44.9632 116.228L55.429 126.558L55.1874 127.537L41.0461 131.799L58.5926 136.126L57.6352 140.005L33.1329 133.964L34.0904 130.084L34.1603 130.102L34.1249 129.945L48.9118 125.47L37.9031 114.636L38.0075 114.513Z" fill="black"/>
<path d="M56.4146 105.521L62.7237 108.76L67.7096 99.0585L71.0723 100.785L64.2599 114.041L41.8419 102.531L48.572 89.4354L51.9347 91.1618L47.0311 100.704L53.0519 103.795L57.5442 95.0535L60.9069 96.7799L56.4146 105.521Z" fill="black"/>
<path d="M112.001 65.1651L108.361 67.4241L103.749 63.8885L94.848 69.4126L95.973 75.1122L92.3024 77.3901L87.019 51.0106L90.6896 48.7327L112.001 65.1651ZM91.9053 54.7149L94.0464 65.4613L100.562 61.418L91.9053 54.7149Z" fill="black"/>
<path d="M122.526 47.5248C123.607 47.8623 124.555 48.4364 125.368 49.2473C126.205 50.0503 126.815 51.0075 127.199 52.119C127.638 53.3893 127.736 54.6632 127.492 55.9408C127.248 57.2184 126.714 58.355 125.89 59.3505C125.066 60.346 124.041 61.0552 122.816 61.4783L116.079 63.8049L116.09 63.839L112.313 65.1433L104.08 41.3261L114.085 37.8713C115.242 37.4718 116.41 37.3985 117.589 37.6514C118.769 37.9043 119.818 38.4432 120.738 39.2681C121.673 40.0624 122.34 41.038 122.74 42.1949C123.038 43.0568 123.158 43.9549 123.1 44.889C123.065 45.8152 122.873 46.6939 122.526 47.5248ZM109.104 43.6283L111.268 49.8889L117.484 47.7044C118.255 47.4381 118.83 46.8968 119.208 46.0807C119.578 45.2419 119.614 44.3915 119.316 43.5296C119.018 42.6676 118.473 42.0436 117.679 41.6575C116.908 41.2636 116.125 41.2037 115.331 41.4779L109.104 43.6283ZM121.57 57.8717C122.454 57.5661 123.085 56.9674 123.463 56.0754C123.863 55.1755 123.902 54.2606 123.58 53.3306C123.259 52.4006 122.663 51.705 121.793 51.2439C120.945 50.7749 120.079 50.6932 119.194 50.9987L112.456 53.3253L114.832 60.1983L121.57 57.8717Z" fill="black"/>
<path d="M142.611 58.0463C140.269 58.2546 138.054 57.8731 135.968 56.9021C133.879 55.9071 132.161 54.4695 130.813 52.5895C129.489 50.7073 128.723 48.5949 128.515 46.2521C128.306 43.9094 128.687 41.6949 129.658 39.6088C130.653 37.5205 132.092 35.8144 133.974 34.4906C135.854 33.1428 137.965 32.3649 140.308 32.1566C142.651 31.9484 144.866 32.3417 146.955 33.3367C149.041 34.3078 150.746 35.7345 152.07 37.6166C153.418 39.4967 154.196 41.608 154.405 43.9508C154.613 46.2935 154.22 48.5091 153.225 50.5973C152.254 52.6835 150.829 54.4005 148.949 55.7482C147.067 57.072 144.954 57.8381 142.611 58.0463ZM142.257 54.0661C143.883 53.9216 145.342 53.3943 146.634 52.4843C147.948 51.5483 148.939 50.3639 149.607 48.9311C150.296 47.4724 150.569 45.9302 150.424 44.3046C150.28 42.679 149.74 41.2211 148.806 39.9307C147.894 38.6143 146.709 37.6233 145.253 36.9576C143.818 36.266 142.288 35.9924 140.662 36.1369C139.036 36.2814 137.566 36.8216 136.252 37.7577C134.96 38.6677 133.969 39.8521 133.279 41.3109C132.612 42.7436 132.35 44.2728 132.495 45.8983C132.64 47.5239 133.168 48.9949 134.08 50.3113C135.014 51.6017 136.199 52.5927 137.634 53.2843C139.09 53.95 140.632 54.2105 142.257 54.0661Z" fill="black"/>
<path d="M175.493 33.4684L179.437 34.1114L176.752 50.5618C176.47 52.2909 175.816 53.7649 174.791 54.9837C173.765 56.2026 172.468 57.0732 170.899 57.5956C169.358 58.0982 167.687 58.2027 165.887 57.9092C164.087 57.6158 162.536 56.986 161.235 56.02C159.937 55.0303 158.996 53.7948 158.411 52.3134C157.85 50.8358 157.71 49.2324 157.992 47.5033L160.677 31.0529L164.621 31.6959L161.936 48.1463C161.693 49.6385 161.995 50.9158 162.843 51.9781C163.714 53.0442 164.944 53.7067 166.531 53.9654C168.213 54.2396 169.611 54.0176 170.725 53.2996C171.867 52.5617 172.561 51.4347 172.809 49.9188L175.493 33.4684Z" fill="black"/>
<path d="M203.748 42.9937L202.367 46.5123L195.664 43.8832L187.836 63.8214L184.116 62.3623L191.944 42.424L185.275 39.8081L186.656 36.2895L203.748 42.9937Z" fill="black"/>
<path d="M233.525 63.9093L233.571 63.854L236.642 66.4107L220.509 85.7696L217.438 83.2129L228.939 69.4127L215.067 74.3058L214.292 73.6609L216.646 59.0844L205.076 72.9675L202.005 70.4108L218.161 51.0242L221.232 53.5809L221.186 53.6363L221.343 53.6731L218.897 68.9224L233.461 63.7618L233.525 63.9093Z" fill="black"/>
<path d="M232.987 85.4864L227.328 89.7609L233.907 98.4618L230.891 100.74L221.902 88.8517L242.01 73.6631L250.891 85.4079L247.874 87.6862L241.404 79.1289L236.004 83.2081L241.931 91.0475L238.915 93.3258L232.987 85.4864Z" fill="black"/>
</svg>
